<svg xmlns="http://www.w3.org/2000/svg" width="53" height="54" fill="none"><path fill="#1BC07D" d="M10.506 25.775V2.37c0-.926.191-1.174 1.089-1.321A8.682 8.682 0 0 1 13.02.926h26.906c.28 0 .56.034.83.079.73.135.932.406 1.066 1.388.045.362.08.723.08 1.084V25.763h.426c1.795 0 3.603-.022 5.399 0 .987.023 1.986.057 2.963.215 1.156.18 1.684.632.628 1.761-.695.745-1.414 1.468-2.132 2.19-4.03 4.042-8.07 8.084-12.1 12.125-2.705 2.721-5.377 5.465-8.082 8.185-.786.79-1.627 1.525-2.424 2.292-.258.249-.472.26-.719.023-.909-.858-1.852-1.694-2.739-2.585-2.57-2.563-5.13-5.149-7.7-7.723-4.209-4.233-8.418-8.467-12.616-12.7-.505-.509-1.01-1.017-1.47-1.57a4.065 4.065 0 0 1-.629-1.039c-.213-.496.169-1.162.82-1.151 2.828.022 5.657-.023 8.485-.045h.472l.022.034Zm16.837 10.15v-1.209c0-.655.1-.768.707-.937.36-.102.718-.192 1.078-.316 1.66-.576 2.952-1.58 3.513-3.32.348-1.083.36-2.19.202-3.307-.213-1.536-1.01-2.642-2.402-3.274-.842-.373-1.717-.678-2.582-.982-1.2-.418-2.424-.78-3.614-1.22-.674-.248-1.224-.7-1.493-1.4-.561-1.456.146-3.15 1.572-3.782.774-.338 1.56-.316 2.38-.214 1.425.17 2.39.914 2.884 2.269.157.429.415.779.887.802.595.01 1.2-.068 1.807-.125.213-.022.27-.169.18-.36-.337-.769-.652-1.559-1.033-2.304-.629-1.253-1.64-2.055-2.986-2.416-.112-.034-.225-.068-.337-.113-.606-.192-.74-.373-.752-1.016V11.053h-2.267v1.738c-.011.599-.146.757-.707.915-.225.068-.45.124-.674.203-1.762.632-3.075 1.716-3.558 3.613-.258 1.027-.202 2.077-.056 3.116.168 1.151.752 2.02 1.762 2.563.662.36 1.358.7 2.077.925 1.347.43 2.716.757 4.074 1.152 1.572.451 2.425 1.614 2.413 3.24 0 1.118-.538 1.92-1.492 2.45-1.01.553-2.1.632-3.233.576-1.673-.068-2.75-.949-3.468-2.394-.169-.35-.303-.722-.517-1.038-.224-.35-.516-.655-.808-.96-.067-.08-.28-.113-.37-.068-.64.339-1.056.824-.932 1.603.034.271.09.531.168.79.382 1.163.842 2.27 1.886 3.015.943.689 1.976 1.152 3.154 1.242.213.011.292.09.28.293v1.558c0 .113 0 .226.012.34h2.256-.011Z"/><path fill="#1BC07D" d="M34.751 11.053H19.564V39.22h15.187V11.053Z"/><path fill="#fff" d="M32.865 29.647c-.505.87-1.246 1.592-2.233 2.156-.988.565-2.144.892-3.469.994v2.325h-1.83v-2.36c-1.907-.169-3.434-.756-4.601-1.738-1.168-.993-1.763-2.326-1.796-4.008h4.287c.113 1.378.82 2.213 2.122 2.507v-5.487c-1.37-.35-2.48-.689-3.311-1.039s-1.56-.903-2.178-1.67c-.606-.768-.92-1.818-.92-3.14 0-1.67.595-3.025 1.784-4.086 1.19-1.05 2.728-1.66 4.614-1.807V9.97h1.83v2.325c1.829.159 3.288.712 4.388 1.671 1.1.96 1.706 2.28 1.84 3.963h-4.32a2.697 2.697 0 0 0-.584-1.456c-.337-.418-.775-.7-1.325-.88v5.43c1.426.36 2.56.71 3.39 1.05.83.338 1.549.88 2.155 1.636.606.757.92 1.796.92 3.116 0 .994-.258 1.93-.763 2.8v.023ZM23.672 19.53c.382.395.932.711 1.662.96v-4.979c-.685.102-1.235.35-1.628.779-.404.418-.606.994-.606 1.694 0 .632.19 1.14.572 1.535v.011Zm5.186 9.156c.415-.463.617-1.016.617-1.67 0-.655-.202-1.141-.606-1.525-.404-.384-.976-.7-1.717-.948v5.035c.73-.135 1.29-.429 1.706-.892Z"/></svg>