<svg xmlns="http://www.w3.org/2000/svg" width="60" height="57" fill="none"><path fill="#FF3D72" d="M34.05 1.56c2.044.387 3.934 1.16 5.79 2.086 1.77.883 3.308 2.086 4.747 3.422.56.518 1 1.125 1.352 1.81.088.165.33.33.527.364.78.121 1.572.143 2.34.298 3.187.673 5.66 2.34 7.055 5.397.352.761.462 1.578.55 2.406.11 1.004.285 2.008.296 3.012.011 1.082-.362 2.097-.945 3.013-.285.453-.736.718-1.208.928-1 .419-2.033.739-3.121.75-.725 0-1.45-.133-2.165-.276-.758-.154-1.505-.375-2.252-.596-.275-.077-.385.011-.418.265a4.642 4.642 0 0 0-.033.552c.011 4.36-1.362 8.244-4 11.698a19.28 19.28 0 0 1-3.142 3.212c-.275.22-.583.397-.901.552-.143.066-.385.077-.506 0-.076-.056-.076-.32-.032-.464.241-.927.516-1.854.769-2.781.44-1.6.615-3.223.44-4.878-.407-3.642-1.924-6.633-5.11-8.608a9.296 9.296 0 0 0-1.176-.64c-.473-.21-.802-.11-1.132.286-.176.21-.319.453-.428.707-.121.276.175.828.56 1.092.418.298.857.574 1.242.916.604.519 1.208 1.06 1.758 1.634 1.044 1.081 1.55 2.428 1.813 3.873.45 2.56.165 5.033-1.033 7.362-.176.342-.407.662-.637.982-.308.43-.682.773-1.242.971.33.199.637.42.989.585 1.791.828 3.582 1.667 5.131 2.892 1.736 1.368 3.165 2.99 3.945 5.11a7.682 7.682 0 0 1 .45 3.112c-.087 1.5-.966 2.174-2.307 2.207-1.67.044-3.186-.53-4.527-1.534-1.033-.773-1.791-1.799-2.56-2.814-1.077-1.424-2.23-2.77-3.868-3.598-1.34-.684-2.77-.95-4.241-1.148-.957-.133-1.901-.397-2.814-.706-.472-.155-.912-.497-1.274-.85-1.077-1.06-1.12-2.34-.176-3.52.407-.497.857-.96 1.242-1.469.351-.463.659-.96.989-1.445.187-.276.088-.442-.198-.585-.747-.364-1.55-.453-2.352-.585-2.307-.375-4.615-.75-6.614-2.075-.56-.375-1.077-.85-1.56-1.324-.473-.464-.616-.497-1.242-.287-2.033.684-4.033.53-5.736-.795-2.165-1.689-2.418-4.15-.736-6.357 1.263-1.655 3.021-2.14 5.021-1.777.616.11 1.198.364 1.78.585.385.144.44.133.55-.276.099-.375.186-.761.307-1.125 1.165-3.73 3.505-6.468 6.967-8.256 1.9-.982 3.912-1.49 6.032-1.49 1.835 0 3.593.409 5.319 1.038 1.626.585 3.296 1.082 4.966 1.578.363.11.77.11 1.154.088.791-.055 1.352-.474 1.714-1.191.528-1.005 1.088-1.998 1.626-2.991a.238.238 0 0 1 .033-.055c.396-.773.396-.762-.34-1.192-1.319-.773-2.714-1.369-4.23-1.645-1.858-.331-3.726-.353-5.605-.199-1.307.1-2.637.221-3.934.144-1.637-.1-3.252-.508-4.625-1.468-1.583-1.104-1.682-3.256-.297-4.613.78-.762 1.736-1.148 2.78-1.302 1.264-.188 2.527-.442 3.813-.453.143 0 3.549.254 4.637.464l.033-.022Z"/><path fill="#FF3D72" d="M35.05 1.78S30.7.503 26.45 1.767l8.602.011ZM54.09 19.643c.945 0 1.711-.776 1.711-1.733 0-.958-.766-1.734-1.711-1.734-.945 0-1.712.776-1.712 1.734 0 .957.767 1.733 1.712 1.733ZM18.26 8.97H7.074a1.03 1.03 0 1 0 0 2.059H18.26a1.03 1.03 0 0 0 0-2.058ZM13.193 13.547H5.195a1.03 1.03 0 1 0 0 2.058h7.998a1.03 1.03 0 0 0 0-2.058ZM10.553 18.021H3.17a1.03 1.03 0 1 0 0 2.059h7.383a1.03 1.03 0 0 0 0-2.058Z"/></svg>