<svg xmlns="http://www.w3.org/2000/svg" width="50" height="56" fill="none"><path fill="#3B45FF" d="M1.152 16.041v4.9c0 1.924.638 3.658 2.204 4.765 1.767 1.253 3.613 2.517 5.615 3.311 7.674 3.065 15.65 3.524 23.738 2.114 4.228-.738 8.378-1.778 11.958-4.329 1.678-1.197 3.154-2.606 3.356-4.754.179-1.913.033-3.848.033-5.906-7.036 5.29-15.068 6.745-23.401 6.678-8.3-.067-16.467-1.018-23.503-6.779Z"/><path fill="#3B45FF" d="M1.152 27.53c0 1.51.056 2.718-.011 3.915-.168 2.718.928 4.798 3.132 6.297.917.627 1.868 1.23 2.875 1.712 4.553 2.17 9.396 3.21 14.408 3.501 6.734.392 13.39-.235 19.565-2.975 7.416-3.29 7.427-5.784 6.823-12.104-1.376.85-2.729 1.835-4.206 2.573-6.398 3.177-13.322 3.736-20.28 3.535-7.842-.235-15.65-.895-22.306-6.455Z"/><path fill="#3B45FF" d="M1.152 38.738v4.486c-.011 2.036.694 3.815 2.35 4.978 1.7 1.197 3.478 2.394 5.391 3.166 6.097 2.46 12.506 3.277 19.04 2.751 5.301-.425 10.559-1.33 15.257-4.027 5.213-2.986 5.347-5.145 4.743-11.007-1.331.839-2.64 1.812-4.072 2.528-6.443 3.222-13.412 3.781-20.415 3.557-7.83-.246-15.65-.839-22.283-6.432h-.01Z"/><path fill="#1BC07D" d="M1.152 16.041c7.036 5.761 15.202 6.7 23.503 6.779 8.344.067 16.365-1.387 23.401-6.678 0 2.058.146 4.004-.033 5.906-.202 2.148-1.678 3.557-3.356 4.754-3.591 2.55-7.73 3.591-11.958 4.33-8.088 1.409-16.064.961-23.738-2.115-1.99-.794-3.848-2.058-5.615-3.311-1.566-1.107-2.193-2.841-2.204-4.765v-4.9Z"/><path fill="#0197D8" d="M1.152 27.53c6.656 5.559 14.464 6.219 22.306 6.454 6.969.212 13.882-.358 20.28-3.535 1.477-.738 2.83-1.723 4.206-2.573.604 6.32.593 8.804-6.823 12.104-6.175 2.74-12.83 3.367-19.565 2.975-5.012-.29-9.855-1.331-14.408-3.501-1.007-.481-1.946-1.085-2.875-1.712-2.215-1.51-3.3-3.58-3.132-6.297.078-1.197.011-2.406.011-3.916Z"/><path fill="#FF3D72" d="M1.152 38.738c6.634 5.582 14.453 6.186 22.283 6.432 7.014.213 13.983-.346 20.415-3.557 1.432-.716 2.74-1.689 4.072-2.528.593 5.862.459 8.02-4.743 11.007-4.698 2.696-9.956 3.602-15.258 4.027-6.533.526-12.943-.29-19.04-2.751-1.912-.772-3.68-1.97-5.39-3.166-1.656-1.163-2.361-2.942-2.35-4.978v-4.486h.011Z"/><path fill="#FFC859" d="M47.72 10.516c0 5.626-10.369 10.19-23.155 10.19-12.786 0-23.156-4.564-23.156-10.19 0-5.627 10.683-9.52 23.47-9.52 12.785 0 22.842 3.893 22.842 9.52Z"/></svg>