<svg xmlns="http://www.w3.org/2000/svg" width="58" height="58" fill="none"><path fill="#3B45FF" d="M29.164 12.164c9.373-.03 17.097 7.45 17.005 16.684-.082 8.708-6.874 16.806-16.749 16.857-9.516.04-17.097-7.369-17.127-16.704-.031-9.275 7.518-16.806 16.871-16.837Z"/><path fill="#3B45FF" d="M40.473 53.357c-1.014-.081-2.049-.294-3.053-.213-.973.071-2.007.274-2.858.72-1.505.79-2.909 1.774-4.312 2.727-.748.506-1.363.486-2.09-.02-1.403-.964-2.786-1.967-4.302-2.748-.892-.456-1.988-.648-3.002-.689-1.567-.06-3.155.101-4.722.213-.8.05-1.27-.284-1.588-.994-.502-1.125-1.127-2.189-1.567-3.324-.768-2.017-2.284-3.183-4.22-3.943-.083-.03-.154-.071-.236-.102-4.067-1.733-4.2-1.753-3.555-6.071.359-2.423-.225-4.4-1.68-6.244a20.735 20.735 0 0 1-1.034-1.45c-1.537-2.32-1.793-1.946.01-4.004 2.653-3.03 3.298-6.385 2.54-10.095-.338-1.642.267-2.443 1.7-2.93.206-.07.38-.192.574-.284 3.128-1.567 5.457-3.94 6.987-7.115.6-1.257 1.628-1.842 3.083-1.754 1.23.071 2.469.132 3.698.254 1.24.111 2.346-.132 3.38-.862 1.322-.933 2.736-1.733 4.047-2.666.676-.476 1.219-.426 1.854.01 1.045.73 2.192 1.338 3.175 2.14 1.65 1.337 3.514 1.58 5.532 1.357 1.147-.121 2.295-.131 3.442-.273.82-.102 1.28.253 1.608.932.594 1.217 1.301 2.392 1.803 3.64.686 1.692 1.926 2.726 3.534 3.466 1.199.547 2.418 1.074 3.545 1.753.42.254.83.882.84 1.349.03 1.51-.083 3.03-.226 4.55-.133 1.4.03 2.656.942 3.822.912 1.166 1.64 2.473 2.51 3.67.533.73.523 1.368.02 2.077-.604.872-1.085 1.845-1.802 2.615-1.71 1.815-1.864 3.933-1.66 6.244.451 5.089.943 3.822-3.278 5.758-2.294 1.054-4.107 2.341-4.937 4.764-.133.395-.41.74-.563 1.135-.718 1.916-1.721 3.366-4.15 2.595l.011-.01Zm7.406-24.033c.041-10.228-8.164-18.438-18.295-18.64-10.797-.214-19.176 8.808-19.156 18.245.02 10.298 8.318 18.56 18.552 18.752 9.69.182 19.33-7.917 18.9-18.357Z"/><path fill="#fff" d="M47.88 29.324c.42 10.44-9.22 18.54-18.9 18.357-10.234-.193-18.542-8.464-18.552-18.752-.02-9.437 8.359-18.458 19.156-18.246 10.131.203 18.336 8.413 18.295 18.641ZM29.153 12.407c-9.343.03-16.892 7.561-16.872 16.836.031 9.335 7.601 16.745 17.128 16.705 9.875-.051 16.656-8.15 16.748-16.857.093-9.234-7.631-16.715-17.004-16.684Z"/><path fill="#fff" d="M25.23 34.537c-.132-.132-.265-.254-.388-.386-.134-.131-.256-.283-.39-.415a6.59 6.59 0 0 0-.276-.264c-.226-.202 1.28-2.807 1.424-2.666.266.254.522.507.799.76.174.153.276.143.44-.02.461-.466.922-.932 1.393-1.398.523-.517 1.055-1.024 1.588-1.541.328-.314.635-.649.963-.963.266-.264.533-.517.799-.78.379-.376.748-.76 1.137-1.136l.922-.882c.256-.253.512-.517.768-.77l1.199-1.186c.215-.213 2.796 1.267 2.53 1.55-.369.396-.738.812-1.117 1.197-.379.375-.768.74-1.137 1.115-.287.284-.563.578-.86.861-.297.294-.605.578-.902.882-.266.264-.522.538-.799.801-.307.304-.624.598-.932.902-.297.294-.584.588-.87.882-.205.203-.42.396-.625.598-.216.213-.42.426-.636.629-.286.283-.573.557-.86.841-.225.223-.44.436-.655.659l-.574.567c-.226.223-.44.446-.676.66-.215.202-.42.425-.707.526a.47.47 0 0 1-.461-.05"/><path fill="#fff" d="M38.011 22.49c.574.568.543 1.571-.133 2.25-.676.68-1.731.77-2.315.203-.584-.568-.502-1.571.174-2.25.676-.68 1.69-.77 2.264-.203h.01ZM25.59 30.793c-.503-.578-.953-1.024-1.373-1.358-1.506-1.216-3.401.963-1.977 2.27l4.077 3.781-2.152-2.027"/></svg>