<svg width="57" height="56" viewBox="0 0 57 56" fill="none" xmlns="http://www.w3.org/2000/svg">
<path d="M39.473 52.357C38.4589 52.2759 37.4242 52.0631 36.4203 52.1442C35.4472 52.2151 34.4126 52.4179 33.5624 52.8639C32.0565 53.6545 30.6531 54.6377 29.2497 55.5905C28.502 56.0973 27.8873 56.0771 27.16 55.5703C25.7566 54.6073 24.3737 53.6038 22.8577 52.8233C21.9665 52.3672 20.8704 52.1746 19.8562 52.134C18.289 52.0732 16.7012 52.2354 15.1339 52.3469C14.3349 52.3976 13.8637 52.0631 13.5461 51.3535C13.0442 50.2284 12.4193 49.1641 11.9788 48.0288C11.2105 46.0117 9.69446 44.846 7.7584 44.0858C7.67645 44.0554 7.60474 44.0149 7.52279 43.9844C3.45603 42.2511 3.32286 42.2309 3.96822 37.9128C4.32675 35.4902 3.74285 33.5136 2.28824 31.6688C1.91947 31.2025 1.58143 30.716 1.25363 30.2193C-0.282933 27.8981 -0.539026 28.2732 1.26387 26.2155C3.917 23.1847 4.56235 19.8296 3.80432 16.1197C3.46627 14.4776 4.07065 13.6769 5.50478 13.1903C5.70965 13.1194 5.88379 12.9977 6.07842 12.9065C9.20618 11.3387 11.5349 8.96685 13.0646 5.79081C13.6656 4.5339 14.6934 3.94937 16.148 4.03722C17.3773 4.10818 18.6168 4.169 19.846 4.29063C21.0855 4.40213 22.1918 4.15886 23.2264 3.42904C24.5479 2.4965 25.9615 1.69573 27.2727 0.763193C27.9488 0.286786 28.4917 0.337468 29.1268 0.77333C30.1717 1.50314 31.319 2.11132 32.3024 2.91209C33.9516 4.25009 35.816 4.49336 37.834 4.27036C38.9813 4.14872 40.1286 4.13859 41.2759 3.99668C42.0954 3.89531 42.5563 4.25009 42.8841 4.92922C43.4783 6.14558 44.1851 7.32139 44.687 8.56816C45.3734 10.2609 46.6129 11.2948 48.2211 12.0348C49.4196 12.5821 50.6386 13.1092 51.7655 13.7884C52.1855 14.0418 52.5952 14.6702 52.6054 15.1365C52.6362 16.6468 52.5235 18.1672 52.3801 19.6877C52.2469 21.0865 52.4108 22.3434 53.3225 23.5091C54.2342 24.6748 54.9615 25.9823 55.8322 27.1784C56.3649 27.9082 56.3547 28.5468 55.8527 29.2564C55.2483 30.1281 54.7669 31.1012 54.0498 31.8715C52.3391 33.6859 52.1855 35.8044 52.3903 38.1155C52.841 43.2039 53.3327 41.9369 49.1123 43.8729C46.8177 44.9271 45.0046 46.2144 44.1749 48.637C44.0417 49.0323 43.7651 49.377 43.6115 49.7723C42.8944 51.688 41.8905 53.1375 39.4627 52.3672L39.473 52.357ZM46.8792 28.3238C46.9202 18.0963 38.715 9.88588 28.5839 9.68315C17.787 9.47029 9.40764 18.4916 9.42812 27.9285C9.44861 38.227 17.746 46.4881 27.9795 46.6807C37.6701 46.8632 47.3094 38.7642 46.8792 28.3238Z" fill="#3B45FF"/>
</svg>
