<svg xmlns="http://www.w3.org/2000/svg" width="30" height="30" fill="none"><g clip-path="url(#a)"><path fill="#fff" d="M6.303 18.957a3.159 3.159 0 0 1-3.151 3.152A3.158 3.158 0 0 1 0 18.957a3.159 3.159 0 0 1 3.152-3.15h3.15v3.15Zm1.588 0a3.16 3.16 0 0 1 3.152-3.15 3.158 3.158 0 0 1 3.15 3.15v7.891A3.158 3.158 0 0 1 11.043 30a3.159 3.159 0 0 1-3.15-3.15v-7.893H7.89Zm3.152-12.654a3.159 3.159 0 0 1-3.151-3.151A3.159 3.159 0 0 1 11.042 0a3.159 3.159 0 0 1 3.15 3.15v3.153h-3.15Zm0 1.588a3.16 3.16 0 0 1 3.15 3.152 3.158 3.158 0 0 1-3.15 3.15H3.152A3.159 3.159 0 0 1 0 11.043 3.159 3.159 0 0 1 3.152 7.89h7.89Zm12.654 3.152A3.159 3.159 0 0 1 26.85 7.89 3.159 3.159 0 0 1 30 11.043a3.158 3.158 0 0 1-3.15 3.15h-3.153v-3.15Zm-1.588 0a3.158 3.158 0 0 1-3.15 3.15 3.159 3.159 0 0 1-3.152-3.15V3.15A3.158 3.158 0 0 1 18.956 0a3.159 3.159 0 0 1 3.152 3.15v7.893Zm-3.152 12.654a3.159 3.159 0 0 1 3.152 3.151A3.158 3.158 0 0 1 18.96 30a3.159 3.159 0 0 1-3.152-3.15v-3.153h3.15Zm0-1.588a3.159 3.159 0 0 1-3.15-3.152 3.158 3.158 0 0 1 3.15-3.15h7.892A3.159 3.159 0 0 1 30 18.956a3.159 3.159 0 0 1-3.15 3.152h-7.893Z"/></g><defs><clipPath id="a"><path fill="#fff" d="M0 0h30v30H0z"/></clipPath></defs></svg>