<svg width="30" height="30" viewBox="0 0 30 30" fill="none" xmlns="http://www.w3.org/2000/svg">
<g clip-path="url(#clip0_342_904)">
<path d="M6.30265 18.9574C6.30078 19.7925 5.96825 20.593 5.37777 21.1836C4.78729 21.7743 3.98694 22.107 3.15176 22.1091C2.31644 22.1073 1.51586 21.7746 0.92519 21.1839C0.334523 20.5933 0.00186458 19.7927 0 18.9574C0.00209753 18.1222 0.334859 17.3218 0.925501 16.7313C1.51614 16.1409 2.31659 15.8083 3.15176 15.8065H6.30265V18.9574ZM7.89088 18.9574C7.89298 18.1222 8.22574 17.3218 8.81638 16.7313C9.40702 16.1409 10.2075 15.8083 11.0426 15.8065C11.8777 15.8086 12.6779 16.1412 13.2683 16.7317C13.8588 17.3221 14.1914 18.1223 14.1935 18.9574V26.8482C14.1917 27.6833 13.8593 28.4836 13.269 29.0742C12.6787 29.6648 11.8786 29.9977 11.0435 30C10.2085 29.9979 9.40829 29.6653 8.81783 29.0748C8.22738 28.4844 7.89474 27.6841 7.89265 26.8491V18.9574H7.89088ZM11.0426 6.30265C10.2076 6.30055 9.4074 5.96791 8.81695 5.37746C8.2265 4.78701 7.89386 3.98679 7.89177 3.15176C7.89363 2.31674 8.22604 1.51643 8.81633 0.925811C9.40662 0.335195 10.2067 0.00233039 11.0418 0C11.8768 0.00209659 12.677 0.334737 13.2675 0.925188C13.8579 1.51564 14.1905 2.31586 14.1926 3.15088V6.30265H11.0418H11.0426ZM11.0426 7.89088C11.8778 7.89298 12.6782 8.22574 13.2687 8.81638C13.8591 9.40702 14.1917 10.2075 14.1935 11.0426C14.1914 11.8777 13.8588 12.6779 13.2683 13.2683C12.6779 13.8588 11.8777 14.1914 11.0426 14.1935H3.15176C2.31659 14.1917 1.51614 13.8591 0.925501 13.2687C0.334859 12.6782 0.00209753 11.8778 0 11.0426C0.00186458 10.2073 0.334523 9.40674 0.92519 8.81607C1.51586 8.22541 2.31644 7.89275 3.15176 7.89088H11.0426ZM23.6974 11.0426C23.6992 10.2073 24.0319 9.40674 24.6225 8.81607C25.2132 8.22541 26.0138 7.89275 26.8491 7.89088C27.6843 7.89298 28.4846 8.22574 29.0751 8.81638C29.6656 9.40702 29.9981 10.2075 30 11.0426C29.9979 11.8777 29.6653 12.6779 29.0748 13.2683C28.4844 13.8588 27.6841 14.1914 26.8491 14.1935H23.6974V11.0426ZM22.1091 11.0426C22.107 11.8777 21.7744 12.6779 21.1839 13.2683C20.5935 13.8588 19.7933 14.1914 18.9582 14.1935C18.1231 14.1917 17.3226 13.8591 16.732 13.2687C16.1413 12.6782 15.8086 11.8778 15.8065 11.0426V3.15C15.8088 2.31513 16.1415 1.51514 16.732 0.924875C17.3224 0.334615 18.1225 0.00209559 18.9574 0C19.7925 0.00186368 20.593 0.334401 21.1836 0.924877C21.7743 1.51535 22.107 2.31571 22.1091 3.15088V11.0426ZM18.9574 23.6974C19.7925 23.6992 20.593 24.0318 21.1836 24.6222C21.7743 25.2127 22.107 26.0131 22.1091 26.8482C22.1073 27.6834 21.7747 28.4839 21.1842 29.0745C20.5938 29.6651 19.7934 29.9979 18.9582 30C18.1231 29.9981 17.3226 29.6656 16.732 29.0751C16.1413 28.4846 15.8086 27.6843 15.8065 26.8491V23.6974H18.9574ZM18.9574 22.1091C18.1222 22.107 17.3218 21.7743 16.7313 21.1836C16.1409 20.593 15.8083 19.7925 15.8065 18.9574C15.8086 18.1223 16.1412 17.3221 16.7317 16.7317C17.3221 16.1412 18.1223 15.8086 18.9574 15.8065H26.8491C27.6841 15.8086 28.4844 16.1412 29.0748 16.7317C29.6653 17.3221 29.9979 18.1223 30 18.9574C29.9981 19.7925 29.6656 20.593 29.0751 21.1836C28.4846 21.7743 27.6843 22.107 26.8491 22.1091H18.9574Z" fill="white"/>
</g>
<defs>
<clipPath id="clip0_342_904">
<rect width="30" height="30" fill="white"/>
</clipPath>
</defs>
</svg>
