<svg xmlns="http://www.w3.org/2000/svg" width="40" height="30" fill="none"><g clip-path="url(#a)"><path fill="#fff" d="M39.214 14.875c0-.097 0-.208-.004-.336-.004-.36-.013-.763-.021-1.194a68.02 68.02 0 0 0-.192-3.634c-.13-1.601-.322-2.936-.583-3.94a6.22 6.22 0 0 0-1.567-2.766 6.047 6.047 0 0 0-2.712-1.603c-1.232-.337-3.643-.545-7.038-.674a195.315 195.315 0 0 0-5.071-.124 289.83 289.83 0 0 0-1.671-.018h-1.28c-.506.004-1.066.009-1.671.017-1.729.023-3.457.063-5.071.125-3.396.133-5.812.341-7.04.674a6.04 6.04 0 0 0-2.712 1.602 6.212 6.212 0 0 0-1.565 2.769C.75 6.773.562 8.109.433 9.71a68.065 68.065 0 0 0-.192 3.634c-.014.43-.017.833-.022 1.194 0 .128-.005.24-.005.336v.249c0 .098 0 .208.005.337.004.36.013.763.022 1.193.034 1.238.095 2.471.191 3.634.13 1.601.322 2.937.583 3.94.557 2.124 2.194 3.801 4.279 4.37 1.227.336 3.643.544 7.039.673a195.5 195.5 0 0 0 5.07.124c.606.009 1.166.014 1.672.018h1.28c.505-.004 1.066-.008 1.671-.017 1.728-.022 3.456-.062 5.07-.125 3.395-.133 5.811-.341 7.039-.674 2.084-.568 3.722-2.24 4.279-4.37.265-1.002.452-2.338.583-3.94.096-1.162.157-2.395.192-3.633.013-.43.017-.834.021-1.193 0-.129.004-.24.004-.337v-.249Zm-3.133.232c0 .092 0 .194-.005.314-.004.346-.013.728-.021 1.14a61.07 61.07 0 0 1-.184 3.456c-.117 1.428-.282 2.6-.486 3.385-.27 1.025-1.063 1.837-2.063 2.107-.915.249-3.217.448-6.347.568-2.212.084-4.425.13-6.638.137h-1.245l-1.646-.012c-1.664-.02-3.328-.062-4.992-.125-3.13-.124-5.437-.32-6.346-.568a2.966 2.966 0 0 1-2.063-2.107c-.205-.785-.37-1.957-.488-3.386a65.498 65.498 0 0 1-.182-3.455c-.013-.412-.018-.799-.022-1.14 0-.12-.004-.226-.004-.315v-.213c0-.093 0-.195.004-.315.004-.345.013-.728.022-1.14.03-1.18.091-2.36.182-3.456.118-1.428.283-2.6.488-3.385.27-1.025 1.062-1.837 2.063-2.107.914-.248 3.217-.448 6.346-.568a194.352 194.352 0 0 1 6.639-.137h1.244l1.645.013c1.703.022 3.404.062 4.993.124 3.129.124 5.436.32 6.346.568a2.966 2.966 0 0 1 2.064 2.107c.204.785.369 1.957.486 3.386.092 1.095.149 2.275.184 3.455.013.412.017.799.021 1.14 0 .12.005.226.005.315v.214Zm-20.24 5.837 10.098-5.989-10.098-5.9v11.889Z"/></g><defs><clipPath id="a"><path fill="#fff" d="M0 0h39.429v30H0z"/></clipPath></defs></svg>