<svg xmlns="http://www.w3.org/2000/svg" width="30" height="30" fill="none"><g clip-path="url(#a)"><path stroke="#fff" stroke-width="2.308" d="M15 28.461c7.435 0 13.462-6.027 13.462-13.461 0-7.435-6.027-13.462-13.462-13.462S1.538 7.565 1.538 15C1.538 22.434 7.565 28.46 15 28.46Z"/><path fill="#fff" d="M14.998 1.808C7.899 1.808 2.146 7.715 2.146 15S7.902 28.192 15 28.192c7.1 0 12.853-5.907 12.853-13.192S22.098 1.808 14.998 1.808Zm3.859 25.041c-.62.123-.838-.267-.838-.6 0-.41.014-1.756.014-3.425 0-1.166-.39-1.928-.827-2.316 2.714-.306 5.56-1.364 5.56-6.16 0-1.361-.471-2.479-1.252-3.351.124-.316.544-1.583-.12-3.304 0 0-1.022-.336-3.347 1.282a11.41 11.41 0 0 0-3.049-.424c-1.03.002-2.055.144-3.047.424C9.625 7.359 8.6 7.693 8.6 7.693c-.661 1.72-.244 2.989-.118 3.304-.778.872-1.251 1.987-1.251 3.351 0 4.785 2.843 5.856 5.546 6.171-.348.313-.663.862-.773 1.67-.695.317-2.458.869-3.543-1.04 0 0-.644-1.198-1.866-1.287 0 0-1.19-.015-.084.76 0 0 .8.382 1.352 1.825 0 0 .716 2.428 4.103 1.675.005 1.042.016 1.828.016 2.124 0 .33-.22.716-.832.6-4.84-1.65-8.328-6.33-8.328-11.846-.002-6.892 5.45-12.482 12.175-12.482 6.725 0 12.177 5.59 12.177 12.487 0 5.514-3.486 10.191-8.318 11.844Z"/></g><defs><clipPath id="a"><path fill="#fff" d="M0 0h30v30H0z"/></clipPath></defs></svg>