<svg xmlns="http://www.w3.org/2000/svg" width="28" height="28" fill="none"><mask id="a" width="28" height="28" x="0" y="0" maskUnits="userSpaceOnUse" style="mask-type:luminance"><path fill="#fff" d="M.832.144h27v27h-27v-27Z"/></mask><g mask="url(#a)"><path fill="#fff" d="M27.832 5.272c-1.016.443-2.09.737-3.189.874a5.504 5.504 0 0 0 2.435-3.06 11.063 11.063 0 0 1-3.51 1.34 5.534 5.534 0 0 0-9.575 3.786c0 .439.037.86.129 1.262-4.602-.224-8.674-2.43-11.41-5.79a5.543 5.543 0 0 0 1.701 7.398 5.467 5.467 0 0 1-2.5-.681v.06a5.56 5.56 0 0 0 4.434 5.44c-.45.122-.941.18-1.451.18-.354 0-.712-.02-1.048-.093.717 2.192 2.752 3.804 5.172 3.856a11.122 11.122 0 0 1-6.863 2.36c-.454 0-.89-.02-1.325-.075a15.583 15.583 0 0 0 8.492 2.484c10.186 0 15.754-8.438 15.754-15.751 0-.245-.008-.481-.02-.716a11.043 11.043 0 0 0 2.774-2.874Z"/></g></svg>