<svg xmlns="http://www.w3.org/2000/svg" width="135" height="39" fill="none"><g clip-path="url(#a)"><path fill="#fff" d="M10.62 11.166H6.377v17.606H3.018V11.166H.4V8.373h2.62V6.921c0-2.282.582-3.952 1.753-5.005C5.94.862 7.816.334 10.398.334v2.83c-1.476 0-2.516.292-3.118.874-.603.584-.904 1.545-.904 2.885v1.452h4.244v2.793-.002ZM13.425 13.008c.835-1.575 1.987-2.797 3.45-3.667 1.463-.869 3.093-1.304 4.89-1.304 1.796 0 3.308.386 4.611 1.155 1.303.77 2.275 1.737 2.916 2.902v-3.72h3.394V28.77h-3.394v-3.797c-.664 1.192-1.655 2.178-2.971 2.96-1.316.783-2.848 1.173-4.595 1.173-1.747 0-3.42-.446-4.87-1.34-1.453-.892-2.596-2.147-3.43-3.76-.838-1.612-1.255-3.45-1.255-5.51 0-2.06.42-3.915 1.254-5.49v.002Zm14.944 1.508c-.615-1.142-1.446-2.017-2.49-2.624a6.746 6.746 0 0 0-3.45-.912c-1.254 0-2.399.298-3.433.895-1.034.594-1.858 1.465-2.471 2.605-.615 1.142-.923 2.482-.923 4.02 0 1.539.307 2.922.923 4.077.615 1.153 1.44 2.034 2.471 2.642 1.034.607 2.177.911 3.433.911 1.256 0 2.405-.304 3.45-.911 1.044-.608 1.875-1.49 2.49-2.642.615-1.153.923-2.5.923-4.038 0-1.538-.308-2.879-.923-4.02v-.003ZM40.25 28.306c-1.23-.534-2.202-1.278-2.916-2.232-.713-.955-1.106-2.054-1.18-3.295h3.468c.098 1.017.572 1.849 1.42 2.493.849.647 1.962.968 3.34.968 1.279 0 2.287-.285 3.026-.856.737-.57 1.106-1.29 1.106-2.159 0-.868-.393-1.558-1.18-1.99-.789-.434-2.007-.863-3.653-1.285-1.502-.396-2.726-.8-3.672-1.209a6.533 6.533 0 0 1-2.435-1.823c-.678-.805-1.015-1.866-1.015-3.182 0-1.043.308-1.998.923-2.866.615-.868 1.489-1.558 2.618-2.066 1.133-.509 2.423-.763 3.875-.763 2.239 0 4.046.571 5.424 1.713 1.378 1.142 2.115 2.704 2.213 4.69h-3.358c-.075-1.066-.498-1.921-1.273-2.568-.776-.644-1.814-.967-3.119-.967-1.205 0-2.166.26-2.877.782-.714.521-1.07 1.204-1.07 2.047 0 .67.215 1.222.645 1.657.43.435.972.782 1.623 1.043.652.26 1.555.552 2.713.875 1.45.396 2.632.788 3.542 1.172.91.386 1.691.96 2.343 1.73.651.77.989 1.773 1.015 3.015 0 1.116-.308 2.122-.923 3.014-.615.894-1.483 1.594-2.602 2.103-1.12.508-2.405.763-3.856.763-1.55 0-2.939-.267-4.17-.8l.005-.004ZM59.511 11.165V23.19c0 .993.21 1.693.628 2.103.419.409 1.145.614 2.177.614h2.471v2.865H61.76c-1.869 0-3.272-.433-4.206-1.303-.935-.869-1.4-2.295-1.4-4.282V11.163h-2.62V8.371h2.62V3.238h3.357v5.137h5.276v2.793h-5.276v-.003Z"/><path fill="#00ADEF" d="M67.74 13.008c.834-1.575 1.986-2.797 3.449-3.667 1.463-.868 3.106-1.304 4.926-1.304 1.574 0 3.037.367 4.392 1.1 1.352.732 2.385 1.693 3.099 2.884V1.23H87v27.543h-3.394v-3.833c-.664 1.215-1.65 2.215-2.952 2.997-1.305.782-2.83 1.172-4.575 1.172-1.746 0-3.427-.446-4.89-1.34-1.463-.892-2.615-2.146-3.45-3.76-.837-1.612-1.254-3.45-1.254-5.51 0-2.06.419-3.915 1.254-5.49Zm14.943 1.509c-.615-1.143-1.446-2.017-2.49-2.625a6.747 6.747 0 0 0-3.45-.911c-1.254 0-2.399.297-3.433.894-1.034.595-1.858 1.465-2.471 2.605-.615 1.142-.923 2.482-.923 4.02 0 1.539.308 2.922.923 4.077.615 1.153 1.44 2.034 2.471 2.642 1.034.607 2.177.911 3.433.911 1.256 0 2.405-.303 3.45-.911 1.044-.608 1.875-1.489 2.49-2.642.615-1.153.923-2.5.923-4.038 0-1.538-.308-2.878-.923-4.02v-.002ZM109.51 8.375v20.396h-3.358v-3.014c-.641 1.043-1.531 1.855-2.674 2.437-1.145.584-2.405.875-3.783.875-1.574 0-2.988-.328-4.244-.987-1.254-.657-2.245-1.644-2.972-2.959-.726-1.314-1.09-2.915-1.09-4.8V8.375h3.323v11.502c0 2.01.504 3.555 1.512 4.635 1.008 1.079 2.386 1.62 4.133 1.62 1.747 0 3.211-.558 4.245-1.674 1.033-1.116 1.55-2.741 1.55-4.876V8.379h3.358v-.004ZM120.413 9.211c1.316-.782 2.847-1.172 4.594-1.172 1.748 0 3.427.435 4.89 1.304 1.463.868 2.614 2.09 3.45 3.667.835 1.575 1.254 3.404 1.254 5.49 0 2.086-.419 3.896-1.254 5.51-.838 1.613-1.987 2.865-3.45 3.76-1.463.894-3.093 1.34-4.89 1.34-1.796 0-3.24-.39-4.556-1.172-1.316-.782-2.32-1.756-3.007-2.922v13.437h-3.358V8.375h3.358v3.76c.664-1.166 1.653-2.14 2.971-2.922l-.002-.002Zm9.834 5.266c-.615-1.142-1.446-2.01-2.49-2.605a6.863 6.863 0 0 0-3.45-.894 6.618 6.618 0 0 0-3.414.912c-1.046.607-1.882 1.488-2.51 2.643-.628 1.153-.942 2.489-.942 4.002 0 1.512.314 2.885.942 4.038.628 1.152 1.464 2.034 2.51 2.641a6.672 6.672 0 0 0 3.414.912c1.23 0 2.405-.304 3.45-.912 1.044-.607 1.875-1.489 2.49-2.641.615-1.153.923-2.513.923-4.077s-.308-2.879-.923-4.02v.001Z"/></g><defs><clipPath id="a"><path fill="#fff" d="M0 0h135v39H0z"/></clipPath></defs></svg>