<svg xmlns="http://www.w3.org/2000/svg" width="18" height="18" fill="none"><path fill="#fff" d="M6.632 4.737H1.895a1.894 1.894 0 1 0 0 3.79h4.737a1.894 1.894 0 1 0 0-3.79Zm1.894-2.842v1.894H6.632a1.894 1.894 0 1 1 1.894-1.894Zm-3.79 9.473v4.737a1.894 1.894 0 1 0 3.79 0v-4.737a1.894 1.894 0 1 0-3.79 0ZM1.896 9.474h1.894v1.894a1.894 1.894 0 1 1-1.894-1.894Zm9.473 3.79h4.737a1.894 1.894 0 1 0 0-3.79h-4.737a1.894 1.894 0 1 0 0 3.79Zm-1.894 2.841V14.21h1.894a1.894 1.894 0 1 1-1.894 1.895Zm3.79-9.473V1.895a1.894 1.894 0 1 0-3.79 0v4.737a1.894 1.894 0 1 0 3.79 0Zm2.841 1.894H14.21V6.632a1.894 1.894 0 1 1 1.895 1.894Z"/></svg>