<svg xmlns="http://www.w3.org/2000/svg" width="40" height="40" fill="none"><path fill="#fff" d="M5.151 15.604c-.064-2.435.524-4.564 1.58-6.574a14.02 14.02 0 0 1 4.367-5.003c1.696-1.203 3.566-2.073 5.637-2.474 1.67-.325 3.346-.413 5.041-.194 1.346.175 2.673.42 3.935.92a15.034 15.034 0 0 1 3.178 1.729c2.232 1.596 3.87 3.65 4.95 6.111.414.946.693 1.941.874 2.962.22 1.209.272 2.43.194 3.644-.078 1.221-.356 2.417-.744 3.595-.46 1.409-1.159 2.692-2.052 3.876a13.634 13.634 0 0 1-3.074 2.974c-1.527 1.077-3.177 1.91-5.002 2.398-1.534.407-3.093.539-4.685.407-.945-.075-1.89-.144-2.828-.32a10.906 10.906 0 0 1-3.327-1.22c-2.232-1.259-4.193-2.837-5.61-4.953-1.01-1.51-1.845-3.112-2.175-4.91-.188-1.033-.33-2.072-.265-2.967h.006Zm15.046 11.848c6.252-.126 11.875-4.878 12.044-11.578.168-6.775-5.45-12.054-12.27-12.06-6.724-.007-12.108 5.429-12.166 11.671-.059 6.406 5.319 12.004 12.392 11.973v-.006ZM37.632 33.807c-.693-.082-1.392-.163-2.084-.25-.861-.107-1.722-.22-2.582-.332-.072-.007-.15 0-.22-.007-.233-.012-.37.082-.46.295a421.172 421.172 0 0 1-1.689 3.913c-.181.413-.388.82-.77 1.102a1.085 1.085 0 0 1-1.068.094c-.375-.188-.615-.5-.828-.839-.512-.826-1.003-1.666-1.515-2.492-.284-.463-.595-.914-.893-1.371-.304-.464-.614-.92-.918-1.378-.014-.019-.02-.031-.033-.05-.246-.413-.213-.488.24-.67.97-.388 1.954-.745 2.905-1.177.706-.32 1.366-.727 2.026-1.134 1.216-.745 2.252-1.69 3.235-2.698a9.785 9.785 0 0 0 1.424-1.791c.084-.138.207-.257.317-.382.097-.113.181-.1.266.025.382.595.77 1.177 1.139 1.778.388.626.763 1.259 1.12 1.904a161.33 161.33 0 0 1 1.792 3.262c.194.363.343.745.252 1.183-.116.54-.511.971-1.268.977h-.382v.038h-.006ZM.68 32.642c.116-.307.194-.632.355-.92.44-.777.932-1.522 1.372-2.305.654-1.158 1.282-2.335 1.922-3.506.11-.194.227-.388.343-.576.123-.2.253-.401.37-.601.129-.226.187-.238.368-.05.11.112.214.238.298.369.796 1.209 1.812 2.23 2.906 3.181a16.854 16.854 0 0 0 3.326 2.242c.964.5 1.974.889 3.01 1.227.154.05.303.1.459.157.155.05.226.162.174.3-.077.22-.168.438-.29.639-.642 1.077-1.282 2.16-1.942 3.225a43.141 43.141 0 0 1-1.308 1.953c-.226.32-.543.564-.925.702-.427.156-.75.093-1.016-.257-.233-.3-.447-.62-.608-.964-.415-.883-.796-1.785-1.191-2.674a36.83 36.83 0 0 0-.589-1.24c-.123-.257-.31-.357-.608-.32-1.081.132-2.162.276-3.242.401-.667.075-1.334.194-2.013.107-.427-.057-.75-.25-.97-.595-.091-.138-.13-.307-.201-.501v.006Z"/><path fill="#fff" d="M18.955 20.557c.511 0 1.068-.37 1.217-.839.142-.445.278-.895.394-1.352.434-1.641.861-3.282 1.282-4.922.207-.82.407-1.647.595-2.474.084-.375.045-.732-.227-1.052-.524-.613-1.242-.594-1.915-.244a.746.746 0 0 0-.401.495c-.046.163-.104.325-.15.488-.497 1.935-1.009 3.864-1.494 5.799a53.135 53.135 0 0 0-.608 2.667c-.188.908.589 1.453 1.307 1.44v-.006ZM10.97 15.048c-.027.232.064.464.226.664.123.163.265.313.42.45.647.602 1.301 1.19 1.955 1.785.258.238.524.47.796.695.33.276.692.295 1.113.17.66-.2 1.249-1.31.556-2.017-.24-.244-.479-.495-.725-.732a65.94 65.94 0 0 0-.957-.927c-.11-.107-.097-.22 0-.326.103-.1.207-.206.31-.307.447-.42.893-.832 1.333-1.252.26-.25.434-.563.415-.908-.033-.57-.343-.977-.893-1.227-.473-.213-.874-.094-1.269.163-.078.05-.155.106-.22.169-.46.432-.919.864-1.365 1.308-.466.464-.926.927-1.372 1.403-.22.238-.343.526-.324.89ZM25.064 18.96c.395 0 .712-.158.99-.427.621-.6 1.249-1.19 1.87-1.79.337-.326.686-.645.99-1.002.363-.426.376-.87.072-1.34a4.237 4.237 0 0 0-.55-.677c-.686-.676-1.385-1.334-2.078-2.004-.297-.288-.634-.526-1.048-.638-.634-.163-1.417.338-1.521.964-.071.426.078.795.362 1.096.44.47.893.927 1.353 1.371.427.42.447.526.026.952-.395.4-.816.783-1.21 1.183a2.053 2.053 0 0 0-.37.483c-.206.388-.232.795.02 1.17.253.383.602.652 1.107.646l-.013.012Z"/><path fill="#fff" d="M18.955 20.557c-.718.012-1.488-.532-1.307-1.44.18-.896.388-1.785.608-2.668.492-1.935.997-3.863 1.495-5.798.045-.163.103-.326.149-.489a.746.746 0 0 1 .401-.494c.68-.345 1.398-.364 1.916.244.271.32.31.676.226 1.052a81.014 81.014 0 0 1-.595 2.473 685.31 685.31 0 0 1-1.282 4.922c-.116.45-.252.908-.394 1.352-.156.47-.712.846-1.217.84v.006ZM10.97 15.047c-.02-.357.103-.651.323-.89.446-.475.906-.945 1.372-1.402.446-.444.906-.87 1.365-1.308.065-.063.143-.12.22-.17.395-.256.796-.381 1.269-.162.55.25.86.657.893 1.227.019.344-.15.657-.415.908-.44.42-.886.833-1.333 1.252-.103.1-.207.207-.31.307-.104.107-.117.213 0 .326.317.306.64.613.958.926.245.245.485.489.724.733.686.708.104 1.816-.556 2.016-.42.126-.777.107-1.113-.169a20.634 20.634 0 0 1-.796-.695c-.654-.595-1.308-1.183-1.955-1.784a4.054 4.054 0 0 1-.42-.451c-.156-.2-.253-.432-.227-.664ZM25.064 18.96c-.505.006-.848-.263-1.107-.645-.252-.375-.226-.783-.02-1.17.098-.176.227-.339.37-.483.395-.4.815-.783 1.21-1.183.42-.426.401-.539-.026-.952-.46-.45-.919-.902-1.352-1.371-.285-.307-.434-.67-.363-1.096.104-.626.887-1.127 1.52-.965.415.107.752.351 1.05.64.692.663 1.39 1.327 2.077 2.003.207.2.388.432.55.676.304.464.29.914-.072 1.34-.304.357-.653.676-.99 1.002-.62.601-1.249 1.19-1.87 1.791-.278.27-.595.426-.99.426l.013-.013Z"/></svg>