<svg xmlns="http://www.w3.org/2000/svg" width="27" height="27" fill="none"><path fill="#fff" fill-rule="evenodd" d="M13.53 2.25c-6.198 0-11.221 5.023-11.221 11.22 0 4.957 3.214 9.164 7.673 10.649.562.101.764-.244.764-.541 0-.267-.009-.973-.012-1.908-3.122.677-3.782-1.506-3.782-1.506-.508-1.296-1.245-1.64-1.245-1.64-1.018-.697.078-.681.078-.681 1.127.078 1.718 1.156 1.718 1.156 1 1.715 2.628 1.22 3.264.933.103-.726.395-1.221.715-1.501-2.491-.283-5.11-1.245-5.11-5.546 0-1.223.438-2.227 1.152-3.01-.114-.284-.502-1.426.111-2.97 0 0 .942-.302 3.085 1.149a10.78 10.78 0 0 1 2.808-.378c.949.001 1.893.129 2.808.378 2.144-1.453 3.085-1.149 3.085-1.149.613 1.544.228 2.686.111 2.97.72.783 1.152 1.786 1.152 3.01 0 4.312-2.621 5.259-5.12 5.537.399.346.759 1.03.759 2.077 0 1.5-.014 2.71-.014 3.079 0 .3.2.649.773.539 4.457-1.488 7.668-5.69 7.668-10.646 0-6.198-5.023-11.221-11.22-11.221Z" clip-rule="evenodd"/></svg>