<svg xmlns="http://www.w3.org/2000/svg" width="18" height="19" fill="none"><path fill="#0077B5" d="M17 .66H1C.735.66.48.764.293.948A.973.973 0 0 0 0 1.642v15.714c0 .26.105.51.293.694.187.185.442.288.707.288h16c.265 0 .52-.103.707-.288a.973.973 0 0 0 .293-.694V1.642c0-.26-.105-.51-.293-.694A1.01 1.01 0 0 0 17 .66ZM5.339 15.723H2.667V7.286h2.672v8.437ZM4.003 6.134c-.41 0-.804-.16-1.095-.445a1.507 1.507 0 0 1-.453-1.075c0-.403.163-.79.453-1.075.29-.285.684-.445 1.095-.445.41 0 .804.16 1.095.445.29.285.453.672.453 1.075 0 .403-.163.79-.453 1.075-.29.285-.684.445-1.095.445Zm11.335 9.589h-2.669V11.62c0-.978-.018-2.236-1.388-2.236-1.39 0-1.601 1.067-1.601 2.168v4.172H7.013V7.287h2.56V8.44h.037c.355-.663 1.227-1.362 2.524-1.362 2.704 0 3.203 1.746 3.203 4.019v4.626h.001Z"/></svg>