<svg xmlns="http://www.w3.org/2000/svg" width="60" height="54" fill="none"><g clip-path="url(#a)"><path fill="#fff" d="M.65 43.527h.04c.228 0 .432.148.509.37l1.964 5.688c.035.098.17.098.204 0l1.96-5.687a.542.542 0 0 1 .51-.37h.038c.374 0 .634.382.508.745l-2.298 6.631a.542.542 0 0 1-.509.37h-.627a.541.541 0 0 1-.508-.37l-2.299-6.63c-.126-.364.135-.747.509-.747ZM7.398 44.594a.694.694 0 0 1-.2-.5c0-.197.067-.364.2-.502a.65.65 0 0 1 .486-.207c.19 0 .351.069.485.207.134.138.2.305.2.501a.694.694 0 0 1-.2.501.65.65 0 0 1-.485.207.65.65 0 0 1-.486-.207Zm-.073 6.121v-4.528a.55.55 0 0 1 .54-.558h.038c.298 0 .54.25.54.558v4.528a.55.55 0 0 1-.54.558h-.038a.55.55 0 0 1-.54-.558ZM9.494 47.352v-.136c0-.44.154-.813.462-1.122a1.511 1.511 0 0 1 1.11-.463h2.668c.298 0 .54.25.54.558v.034a.55.55 0 0 1-.54.558h-2.668a.453.453 0 0 0-.324.128.41.41 0 0 0-.135.308v.136c0 .123.045.229.135.316a.45.45 0 0 0 .324.13h1.995c.432 0 .802.156 1.108.466.306.311.459.686.459 1.125v.294c0 .44-.153.815-.46 1.125-.305.31-.675.466-1.107.466h-2.778a.55.55 0 0 1-.54-.558v-.034a.55.55 0 0 1 .54-.558h2.778a.45.45 0 0 0 .325-.13.424.424 0 0 0 .134-.316v-.284a.433.433 0 0 0-.134-.318.445.445 0 0 0-.325-.134h-1.995c-.432 0-.802-.155-1.11-.466a1.54 1.54 0 0 1-.462-1.125ZM15.68 49.235v-3.048a.55.55 0 0 1 .54-.558h.033c.298 0 .54.25.54.558v3.032c0 .254.083.47.25.648.167.178.37.267.61.267h1.828a.11.11 0 0 0 .108-.111v-3.836a.55.55 0 0 1 .54-.558h.033c.298 0 .54.25.54.558v3.942c0 .316-.11.586-.33.809-.22.223-.484.335-.793.335h-1.926c-.542 0-1.006-.2-1.393-.6-.387-.399-.58-.878-.58-1.437ZM21.753 49.235v-1.58c0-.559.193-1.037.578-1.432.386-.396.85-.594 1.396-.594h2.51c.297 0 .54.25.54.558v4.528a.55.55 0 0 1-.54.558h-.034a.55.55 0 0 1-.54-.558V46.89a.11.11 0 0 0-.108-.111h-1.828a.817.817 0 0 0-.61.258.871.871 0 0 0-.25.63v1.557c0 .247.084.459.253.635a.81.81 0 0 0 .607.264h.763c.298 0 .54.25.54.558v.034a.55.55 0 0 1-.54.558h-.763c-.542 0-1.006-.2-1.393-.6-.387-.399-.58-.878-.58-1.437ZM27.88 50.716v-6.63a.55.55 0 0 1 .54-.559h.033c.299 0 .54.25.54.558v6.631a.55.55 0 0 1-.54.558h-.032a.55.55 0 0 1-.54-.558ZM32.931 49.106v-5.02a.55.55 0 0 1 .54-.559h.028c.298 0 .54.25.54.558v5.02c0 .284.097.526.29.725.194.2.426.3.697.3h3.18c.298 0 .54.25.54.558v.028a.55.55 0 0 1-.54.558h-3.18c-.577 0-1.07-.211-1.48-.635a2.125 2.125 0 0 1-.615-1.533ZM39.375 49.237v-1.58c0-.559.193-1.037.578-1.432.385-.396.85-.594 1.395-.594h2.51c.298 0 .54.25.54.558v4.528a.55.55 0 0 1-.54.558h-.033a.55.55 0 0 1-.54-.558v-3.825a.11.11 0 0 0-.109-.111h-1.828a.817.817 0 0 0-.61.258.87.87 0 0 0-.25.63v1.557c0 .247.085.459.254.635.168.176.37.264.607.264h.763c.298 0 .54.25.54.558v.034a.55.55 0 0 1-.54.558h-.764a1.87 1.87 0 0 1-1.392-.6c-.387-.399-.58-.878-.58-1.437h-.001ZM45.863 45.63h.024c.225 0 .426.145.506.363l1.188 3.274a.107.107 0 0 0 .202 0l1.216-3.278a.54.54 0 0 1 .504-.358h.07c.38 0 .641.393.505.758l-2.485 6.653a.54.54 0 0 1-.505.357h-.065c-.378 0-.639-.39-.505-.756l.572-1.553-1.732-4.703c-.135-.365.126-.756.505-.756ZM51.043 49.684v-2.888c0-.323.114-.598.343-.825.228-.227.503-.34.823-.34h2.28c.435 0 .807.16 1.115.48.308.319.462.706.462 1.16v.158c0 .446-.154.828-.462 1.146-.308.318-.68.477-1.116.477H53.33a.55.55 0 0 1-.54-.558v-.028a.55.55 0 0 1 .54-.558h1.17a.431.431 0 0 0 .324-.142.48.48 0 0 0 .135-.343v-.152a.49.49 0 0 0-.135-.346.428.428 0 0 0-.324-.145h-1.803a.55.55 0 0 0-.54.558v2.34c0 .124.04.23.121.317.081.087.18.13.296.13h2.567c.298 0 .54.25.54.558v.034a.55.55 0 0 1-.54.558h-2.567c-.422 0-.783-.155-1.082-.466a1.563 1.563 0 0 1-.448-1.125ZM57.658 51.275a.55.55 0 0 1-.54-.558V47.21c0-.436.153-.808.461-1.117a1.511 1.511 0 0 1 1.11-.463h.68c.298 0 .54.25.54.558v.028a.55.55 0 0 1-.54.558h-.68a.444.444 0 0 0-.324.133.439.439 0 0 0-.135.325v3.484a.55.55 0 0 1-.54.558h-.033Z"/><path fill="#FF4500" d="M22.563 2.948 21.821.613h-9.557l4.224 12.294 6.075-9.96Z"/><path fill="#A4C217" d="M49.652.613h-9.504l-3.932 12.294L46.95 8.484l2.703-7.87Z"/><path fill="#D5CA29" d="M46.949 8.484 40.148.614h9.504l-2.703 7.87Z"/><path fill="#D6493E" d="m25.746 12.906-3.183-9.959-4.215 6.91 7.398 3.05Z"/><path fill="#A63B94" d="m21.642 27.913 9.316 1.437-5.212-16.444-6.334 8.515 2.23 6.492Z"/><path fill="#2DB686" d="m30.958 29.35 9.315-1.433 2.36-6.869-6.417-8.142-5.258 16.444Z"/><path fill="#0197D8" d="m30.958 29.35 5.62 9.325H25.338l5.62-9.325Z"/><path fill="#336C9B" d="m30.958 29.351-5.619 9.325-3.697-10.762 9.316 1.437Z"/><path fill="#26BF79" d="m36.577 38.676 3.696-10.758-9.315 1.433 5.62 9.325Z"/><path fill="#CC4E84" d="m19.412 21.42 6.334-8.514L14.96 8.461l4.452 12.96Z"/><path fill="#1BC07D" d="m42.632 21.05-6.416-8.143L46.95 8.484 42.632 21.05Z"/></g><defs><clipPath id="a"><path fill="#fff" d="M0 .5h60v53H0z"/></clipPath></defs></svg>