<svg xmlns="http://www.w3.org/2000/svg" width="15" height="14" fill="none"><path fill="#FF4500" d="M4.273.853 4.001.016H.497l1.549 4.407L4.273.853Z"/><path fill="#A4C217" d="M14.206.016H10.72L9.279 4.423l3.935-1.585.992-2.822Z"/><path fill="#D5CA29" d="M13.214 2.838 10.721.016h3.485l-.992 2.822Z"/><path fill="#D6493E" d="M5.44 4.423 4.273.853 2.728 3.33 5.44 4.423Z"/><path fill="#A63B94" d="m3.936 9.803 3.416.515L5.44 4.423 3.118 7.476l.818 2.327Z"/><path fill="#2DB686" d="m7.352 10.318 3.415-.513.865-2.463L9.28 4.423l-1.928 5.895Z"/><path fill="#0197D8" d="m7.352 10.318 2.06 3.344h-4.12l2.06-3.344Z"/><path fill="#336C9B" d="m7.351 10.318-2.06 3.344-1.355-3.859 3.415.515Z"/><path fill="#26BF79" d="m9.412 13.661 1.355-3.856-3.415.513 2.06 3.343Z"/><path fill="#CC4E84" d="m3.118 7.476 2.323-3.053L1.486 2.83l1.632 4.646Z"/><path fill="#1BC07D" d="M11.632 7.342 9.279 4.423l3.935-1.585-1.582 4.504Z"/></svg>