<svg xmlns="http://www.w3.org/2000/svg" width="17" height="17" fill="none"><path fill="#fff" fill-rule="evenodd" d="M8.519 1.417a7.064 7.064 0 0 0-2.234 13.769c.354.063.481-.154.481-.34 0-.169-.006-.614-.008-1.202-1.965.426-2.38-.948-2.38-.948-.32-.816-.785-1.034-.785-1.034-.64-.438.05-.428.05-.428.71.05 1.081.728 1.081.728.63 1.08 1.655.768 2.056.587.064-.457.248-.768.45-.944-1.569-.178-3.218-.785-3.218-3.493 0-.77.276-1.401.725-1.894-.071-.18-.315-.899.07-1.87 0 0 .593-.19 1.943.723a6.787 6.787 0 0 1 1.768-.238 6.766 6.766 0 0 1 1.768.238c1.35-.915 1.942-.723 1.942-.723.386.971.144 1.69.07 1.87a2.72 2.72 0 0 1 .726 1.894c0 2.715-1.65 3.312-3.225 3.487.252.218.478.649.478 1.307 0 .945-.008 1.707-.008 1.94 0 .188.126.408.486.338A7.067 7.067 0 0 0 8.52 1.416Z" clip-rule="evenodd"/></svg>