<svg xmlns="http://www.w3.org/2000/svg" width="14" height="13" fill="none"><path fill="#FAFAFF" d="M4.959 7.98V3.54c.235-.028.468-.053.697-.087a11.647 11.647 0 0 0 4.448-1.594.293.293 0 0 0 .108-.15.988.988 0 0 1 1.065-.726.983.983 0 0 1 .861.973v7.808a.977.977 0 0 1-.879.989c-.472.056-.912-.258-1.05-.746a.263.263 0 0 0-.102-.138 11.519 11.519 0 0 0-4.548-1.797c-.194-.033-.39-.058-.6-.089V7.98ZM4.457 3.573V7.92c-.018.008-.038.018-.056.018-.738-.008-1.477.008-2.215-.026-1.15-.05-2-.937-2.031-2.077-.033-1.188.748-2.123 1.91-2.227.606-.054 1.222-.029 1.833-.036h.56ZM2.81 8.416c.462 0 .919-.01 1.376.003.314.01.629.056.943.081.097.008.15.046.186.143.312.849.634 1.697.948 2.545.205.55-.14 1.04-.73 1.04-.22 0-.44.008-.657 0-.414-.015-.736-.207-.884-.593-.404-1.047-.787-2.105-1.175-3.158-.008-.018-.005-.038-.005-.058l-.003-.003ZM12.633 7.657V4.072c.596.105 1.18.923 1.211 1.689.044 1.078-.682 1.748-1.21 1.896Z"/></svg>