<svg xmlns="http://www.w3.org/2000/svg" width="17" height="16" fill="none"><path fill="#fff" d="M6.395 4.21h-4.21a1.684 1.684 0 1 0 0 3.369h4.21a1.684 1.684 0 1 0 0-3.368Zm1.684-2.526v1.684H6.395a1.684 1.684 0 1 1 1.684-1.684Zm-3.368 8.421v4.21a1.684 1.684 0 1 0 3.368 0v-4.21a1.684 1.684 0 1 0-3.368 0ZM2.184 8.421h1.684v1.684a1.684 1.684 0 1 1-1.684-1.684Zm8.421 3.369h4.21a1.684 1.684 0 1 0 0-3.369h-4.21a1.684 1.684 0 1 0 0 3.369Zm-1.684 2.526v-1.684h1.684a1.684 1.684 0 1 1-1.684 1.684Zm3.369-8.421v-4.21a1.684 1.684 0 1 0-3.369 0v4.21a1.684 1.684 0 1 0 3.369 0Zm2.526 1.684h-1.684V5.895a1.684 1.684 0 1 1 1.684 1.684Z"/></svg>