<svg width="15" height="14" viewBox="0 0 15 14" fill="none" xmlns="http://www.w3.org/2000/svg">
<path d="M4.27341 0.853005L4.00127 0.0161133H0.49707L2.04557 4.42328L4.27341 0.853005Z" fill="#FF4500"/>
<path d="M14.2058 0.0161133H10.7207L9.2793 4.42328L13.2144 2.83773L14.2058 0.0161133Z" fill="#A4C217"/>
<path d="M13.2144 2.83774L10.7207 0.0161133H14.2058L13.2144 2.83774Z" fill="#D5CA29"/>
<path d="M5.44036 4.4233L4.27336 0.853027L2.72754 3.33019L5.44036 4.4233Z" fill="#D6493E"/>
<path d="M3.93592 9.80307L7.35178 10.3182L5.44065 4.42334L3.11816 7.47577L3.93592 9.80307Z" fill="#A63B94"/>
<path d="M7.35156 10.3182L10.7669 9.80456L11.632 7.34226L9.27956 4.42334L7.35156 10.3182Z" fill="#2DB686"/>
<path d="M7.35175 10.3184L9.412 13.6615H5.2915L7.35175 10.3184Z" fill="#0197D8"/>
<path d="M7.3514 10.3184L5.29115 13.6615L3.93555 9.80322L7.3514 10.3184Z" fill="#336C9B"/>
<path d="M9.41181 13.6614L10.7669 9.80469L7.35156 10.3183L9.41181 13.6614Z" fill="#26BF79"/>
<path d="M3.11814 7.47554L5.44062 4.4231L1.48584 2.82959L3.11814 7.47554Z" fill="#CC4E84"/>
<path d="M11.6318 7.34235L9.2793 4.42343L13.2144 2.83789L11.6318 7.34235Z" fill="#1BC07D"/>
</svg>
