<svg xmlns="http://www.w3.org/2000/svg" width="175" height="39" fill="none"><g fill="#fff" clip-path="url(#a)"><path d="M89.71 13.855h4.02v17.047h-4.02V13.855ZM80.4 24.268h-.06l-2.72-10.413h-3.205l-2.75 10.413h-.061l-3.053-10.413H64.26l6.045 17.047h2.479l3.174-11.057h.06l3.144 11.057h2.48l6.135-17.047h-4.292L80.4 24.268Zm24.908-10.997c-1.935 0-3.264.737-4.595 2.059v-1.475h-3.718v17.047h4.021v-8.109c0-1.259 0-3.194.725-4.269.604-.891 1.693-1.505 2.751-1.505 2.992 0 3.385 3.102 3.385 5.467v8.416h4.021v-9.46c0-1.997-.242-4.209-1.542-5.806-1.178-1.443-3.204-2.364-5.048-2.364Zm65.232.584-3.083 10.413h-.06l-2.721-10.413h-3.204l-2.751 10.413h-.06l-3.054-10.413h-4.292l6.046 17.047h2.479l3.174-11.058h.06l3.144 11.058h2.478l6.136-17.047h-4.292Zm-47.095-.584c-1.935 0-3.265.737-4.595 2.059v-1.475h-3.718v17.047h4.02v-8.109c0-1.259 0-3.194.726-4.269.605-.891 1.692-1.505 2.751-1.505 2.992 0 3.385 3.102 3.385 5.467v8.416h4.02v-9.46c0-1.997-.241-4.209-1.541-5.806-1.179-1.443-3.204-2.364-5.048-2.364Zm17.894 14.437c2.842 0 4.868-2.488 4.868-5.283 0-2.734-2.026-5.406-4.868-5.406-2.841 0-4.927 2.61-4.927 5.375 0 2.856 2.026 5.314 4.927 5.314Zm0-14.436a8.745 8.745 0 0 1 3.411.685 8.855 8.855 0 0 1 2.89 1.965 9.027 9.027 0 0 1 1.924 2.942c.444 1.1.669 2.28.663 3.469 0 5.16-3.809 9.122-8.888 9.122-4.896 0-8.947-4.085-8.947-9.061 0-5.007 3.99-9.122 8.947-9.122ZM55.311 13.301a7.332 7.332 0 0 0-1.074-3.824 7.173 7.173 0 0 0-2.897-2.672c.239-.155.46-.335.662-.539a4.06 4.06 0 0 0 1.019-1.803c.179-.681.18-1.398.002-2.08a3.955 3.955 0 0 0-2.995.398 4.083 4.083 0 0 0-1.84-2.433 4.084 4.084 0 0 0-1.843 2.446 3.954 3.954 0 0 0-3.008-.405 4.108 4.108 0 0 0 .003 2.079 4.06 4.06 0 0 0 1.019 1.803c.2.203.42.382.657.536a7.147 7.147 0 0 0-2.28 1.813 7.281 7.281 0 0 0-1.382 2.584 7.359 7.359 0 0 0 .652 5.721l6.174 10.868 6.175-10.868h-.001a7.3 7.3 0 0 0 .957-3.624ZM41.612 37.702a7.02 7.02 0 0 1-5.413.725 7.083 7.083 0 0 1-2.496-1.25 7.212 7.212 0 0 1-1.835-2.128l-4.118-7.248-4.119 7.248a7.191 7.191 0 0 1-2.61 2.653 7.047 7.047 0 0 1-3.567.971 7.047 7.047 0 0 1-3.567-.97 7.191 7.191 0 0 1-2.61-2.654L.98 16.93a7.361 7.361 0 0 1-.716-5.502c.242-.92.66-1.783 1.23-2.538A7.17 7.17 0 0 1 3.59 7.023 7.023 7.023 0 0 1 9.004 6.3a7.088 7.088 0 0 1 2.497 1.252 7.213 7.213 0 0 1 1.835 2.129l4.118 7.248 4.12-7.25a7.192 7.192 0 0 1 2.61-2.653 7.047 7.047 0 0 1 3.567-.97c1.252 0 2.482.334 3.566.97a7.192 7.192 0 0 1 2.611 2.653l10.295 18.122a7.35 7.35 0 0 1 .712 5.5 7.234 7.234 0 0 1-3.323 4.401Z"/></g><defs><clipPath id="a"><path fill="#fff" d="M.025.348h174.808v38.327H.025z"/></clipPath></defs></svg>