<svg xmlns="http://www.w3.org/2000/svg" width="32" height="32" fill="none"><g clip-path="url(#a)"><path fill="#3B45FF" d="M16.09 6.711c5.172-.017 9.433 4.11 9.382 9.205-.045 4.804-3.792 9.272-9.24 9.3-5.25.023-9.433-4.065-9.45-9.216-.017-5.117 4.148-9.272 9.308-9.289Z"/><path fill="#3B45FF" d="M22.33 29.439c-.56-.045-1.13-.162-1.684-.118-.537.04-1.108.151-1.577.397-.83.437-1.605.98-2.38 1.505-.412.28-.751.268-1.152-.011-.775-.532-1.538-1.085-2.374-1.516-.492-.252-1.097-.358-1.656-.38-.865-.034-1.74.056-2.605.117-.441.028-.701-.156-.876-.548-.277-.62-.622-1.208-.865-1.834-.424-1.113-1.26-1.756-2.329-2.176-.045-.016-.084-.039-.13-.055-2.243-.957-2.317-.968-1.96-3.35.197-1.337-.125-2.427-.928-3.445-.203-.258-.39-.526-.57-.8-.848-1.28-.99-1.074.005-2.21 1.464-1.671 1.82-3.522 1.402-5.57-.187-.905.147-1.347.938-1.615.113-.04.209-.107.316-.157 1.726-.865 3.01-2.174 3.855-3.926.331-.693.899-1.016 1.701-.967.678.039 1.362.072 2.04.14.684.061 1.295-.073 1.865-.476.73-.514 1.51-.956 2.233-1.47.373-.264.672-.236 1.023.005.576.403 1.21.738 1.752 1.18.91.738 1.938.872 3.052.75.633-.068 1.266-.073 1.899-.152.452-.056.706.14.887.515.328.67.718 1.32.995 2.007.378.934 1.062 1.505 1.95 1.913.66.302 1.333.593 1.955.968.232.14.458.486.464.743.017.834-.046 1.672-.125 2.511-.073.772.017 1.466.52 2.109s.904 1.364 1.385 2.024c.294.403.288.755.011 1.147-.333.48-.599 1.018-.995 1.443-.943 1-1.028 2.17-.915 3.444.248 2.808.52 2.109-1.809 3.177-1.266.582-2.266 1.292-2.724 2.628-.073.219-.226.409-.31.627-.396 1.057-.95 1.856-2.29 1.431l.006-.005Zm4.086-13.26c.023-5.643-4.504-10.173-10.094-10.284-5.957-.118-10.58 4.86-10.568 10.066.01 5.682 4.589 10.24 10.235 10.346 5.346.1 10.665-4.368 10.427-10.128Z"/><path fill="#fff" d="M26.416 16.18c.232 5.76-5.086 10.228-10.427 10.127-5.646-.106-10.23-4.67-10.236-10.346-.01-5.207 4.612-10.184 10.57-10.066 5.589.111 10.116 4.641 10.093 10.284ZM16.085 6.844c-5.155.017-9.32 4.172-9.309 9.29.017 5.15 4.194 9.238 9.45 9.216 5.448-.028 9.19-4.497 9.24-9.3.051-5.095-4.21-9.222-9.381-9.206Z"/><path fill="#fff" d="M13.92 19.054c-.073-.072-.146-.14-.214-.212-.074-.073-.142-.157-.215-.23-.05-.05-.102-.1-.153-.145-.124-.112.707-1.549.786-1.47.147.14.288.279.44.419.097.084.153.078.244-.011.254-.258.508-.515.768-.772.289-.285.582-.565.876-.85.181-.173.35-.358.532-.531.147-.146.294-.286.44-.431.21-.207.413-.42.628-.626l.509-.487c.14-.14.282-.285.423-.425l.662-.654c.118-.118 1.543.699 1.396.855-.204.218-.407.448-.616.66-.21.207-.424.409-.628.615-.158.157-.31.32-.474.476-.164.162-.334.319-.498.486-.147.146-.288.297-.44.442-.17.168-.345.33-.515.498-.164.162-.322.324-.48.486-.113.112-.232.219-.345.33-.119.118-.232.235-.35.347-.159.157-.317.308-.475.464-.125.123-.243.24-.362.364l-.316.313c-.125.123-.243.246-.373.363-.12.112-.232.235-.39.291a.259.259 0 0 1-.255-.028"/><path fill="#fff" d="M20.972 12.409c.316.313.3.867-.074 1.241-.373.375-.955.425-1.277.112-.322-.313-.277-.867.096-1.241.373-.375.933-.425 1.25-.112h.005ZM14.118 16.99a5.908 5.908 0 0 0-.757-.75c-.831-.671-1.877.531-1.091 1.253l2.25 2.085-1.188-1.118"/></g><defs><clipPath id="a"><path fill="#fff" d="M0 0h32v32H0z"/></clipPath></defs></svg>